<?xml version="1.0" standalone="no"?>
<!DOCTYPE svg PUBLIC "-//W3C//DTD SVG 20010904//EN"
 "http://www.w3.org/TR/2001/REC-SVG-20010904/DTD/svg10.dtd">
<svg version="1.0" xmlns="http://www.w3.org/2000/svg"
 width="150.000000pt" height="150.000000pt" viewBox="0 0 150.000000 150.000000"
 preserveAspectRatio="xMidYMid meet">
<metadata>
Created by potrace 1.14, written by Peter Selinger 2001-2017
</metadata>
<g transform="translate(0.000000,150.000000) scale(0.100000,-0.100000)"
fill="#000000" stroke="none">
<path d="M433 1322 l-313 -157 0 -378 0 -377 25 -12 c14 -6 25 -15 25 -20 0
-4 6 -7 13 -5 6 1 11 -4 9 -11 -1 -8 2 -11 9 -6 16 9 130 -46 122 -60 -3 -6
-3 -8 1 -4 4 3 21 2 38 -4 23 -8 27 -13 16 -20 -9 -6 -6 -7 10 -3 13 4 22 2
22 -4 0 -6 6 -10 13 -8 6 1 11 -3 10 -10 -2 -7 3 -10 11 -7 17 6 88 -30 79
-40 -4 -4 0 -4 10 0 10 3 17 1 17 -5 0 -6 3 -10 8 -8 12 4 92 -35 92 -45 0 -5
5 -6 10 -3 6 3 10 -2 10 -12 0 -15 2 -16 10 -3 7 11 10 11 10 2 0 -7 5 -10 10
-7 6 3 10 1 10 -5 0 -6 5 -8 10 -5 6 3 10 2 10 -4 0 -6 7 -7 17 -4 12 5 14 3
9 -8 -4 -8 -1 -6 7 3 9 11 22 15 38 12 17 -4 20 -3 10 4 -11 8 -9 12 9 22 18
10 21 10 15 -2 -5 -7 3 -3 16 8 33 29 113 69 104 52 -3 -7 0 -5 9 6 9 11 22
16 31 12 10 -3 14 -2 10 5 -4 6 -1 9 6 7 8 -1 30 9 49 23 42 32 85 55 77 41
-4 -5 5 -7 21 -4 23 4 24 6 7 12 -17 6 -17 7 -1 13 10 4 23 4 29 0 7 -3 9 -3
5 2 -8 9 42 39 50 30 3 -2 11 3 19 13 9 10 11 11 7 2 -7 -12 -5 -13 8 -3 8 7
18 11 21 8 4 -3 5 -2 2 2 -8 10 34 35 47 27 6 -4 8 -3 5 3 -4 6 0 13 8 17 13
5 15 57 15 383 l0 378 -315 158 c-173 86 -316 157 -318 156 -1 0 -143 -71
-314 -157z"/>
<path d="M918 163 c7 -3 16 -2 19 1 4 3 -2 6 -13 5 -11 0 -14 -3 -6 -6z"/>
</g>
</svg>
